<svg width="81" height="81" viewBox="0 0 81 81" fill="none" xmlns="http://www.w3.org/2000/svg">
<circle cx="40.5014" cy="40.7157" r="27.3338" transform="rotate(-45 40.5014 40.7157)" stroke="#D9D9D9" stroke-width="2"/>
<path d="M40.5017 65.5079C33.9264 65.5079 27.6204 62.8959 22.971 58.2465C18.3216 53.5971 15.7096 47.2911 15.7096 40.7159C15.7096 34.1406 18.3216 27.8347 22.971 23.1853C27.6204 18.5358 33.9264 15.9238 40.5017 15.9238C47.0769 15.9238 53.3829 18.5358 58.0323 23.1853C62.6817 27.8347 65.2937 34.1406 65.2937 40.7159C65.2937 47.2911 62.6817 53.5971 58.0323 58.2465C53.3829 62.8959 47.0769 65.5079 40.5017 65.5079ZM49.8947 28.3199C46.2949 28.3201 42.8425 29.7503 40.2971 32.2959L39.5843 33.0056C39.1009 33.4921 38.6299 33.9972 38.1836 34.5241H33.219C32.7554 34.5241 32.2995 34.6429 31.8948 34.8692C31.4901 35.0954 31.1501 35.4215 30.9071 35.8164L28.2544 40.1178C28.162 40.2694 28.1055 40.4402 28.089 40.617C28.0726 40.7938 28.0966 40.972 28.1594 41.1381C28.2221 41.3042 28.3219 41.4538 28.4511 41.5756C28.5803 41.6974 28.7356 41.7881 28.9052 41.8408L33.7148 43.3191L37.8985 47.5027L39.3798 52.3155C39.4311 52.4857 39.5209 52.6418 39.6422 52.7717C39.7635 52.9017 39.9131 53.002 40.0793 53.0649C40.2456 53.1278 40.4241 53.1517 40.601 53.1345C40.778 53.1174 40.9486 53.0599 41.0998 52.9663L45.4043 50.3166C45.7986 50.0733 46.1241 49.7331 46.3497 49.3285C46.5754 48.9238 46.6937 48.4681 46.6935 48.0048V43.0308C47.2203 42.5846 47.7254 42.1166 48.212 41.6301L48.9248 40.9173C51.4687 38.3724 52.8978 34.9212 52.8977 31.3228V31.0346C52.8977 30.3146 52.6117 29.6241 52.1026 29.115C51.5934 28.6059 50.9029 28.3199 50.1829 28.3199H49.8947ZM34.0681 50.4592C34.3083 49.9176 34.3458 49.3085 34.1798 48.7399C34.0137 48.1712 33.6516 47.6798 33.1577 47.3526C32.6638 47.0255 32.0701 46.8838 31.4817 46.9527C30.8933 47.0215 30.3483 47.2966 29.9433 47.7289C28.7192 48.9499 28.1955 51.6275 28.022 52.7493C28.011 52.8097 28.0152 52.8719 28.0341 52.9303C28.053 52.9887 28.0861 53.0415 28.1304 53.084C28.1729 53.1283 28.2257 53.1614 28.2841 53.1803C28.3425 53.1993 28.4047 53.2034 28.4651 53.1925C29.5869 53.0189 32.2645 52.4952 33.4855 51.2742C33.733 51.0448 33.9312 50.7675 34.0681 50.4592Z" fill="#9D9D9D"/>
</svg>
